<?xml version="1.0" encoding="UTF-8" standalone="no"?>
<!-- Created with Inkscape (http://www.inkscape.org/) -->

<svg
   width="115.27834mm"
   height="34.783279mm"
   viewBox="0 0 115.27834 34.783279"
   version="1.1"
   id="svg1546"
   sodipodi:docname="logo-weiss.svg"
   inkscape:version="1.2.2 (b0a8486541, 2022-12-01)"
   xmlns:inkscape="http://www.inkscape.org/namespaces/inkscape"
   xmlns:sodipodi="http://sodipodi.sourceforge.net/DTD/sodipodi-0.dtd"
   xmlns="http://www.w3.org/2000/svg"
   xmlns:svg="http://www.w3.org/2000/svg">
  <sodipodi:namedview
     id="namedview28"
     pagecolor="#393939"
     bordercolor="#666666"
     borderopacity="1.0"
     inkscape:showpageshadow="2"
     inkscape:pageopacity="0"
     inkscape:pagecheckerboard="0"
     inkscape:deskcolor="#d1d1d1"
     inkscape:document-units="mm"
     showgrid="false"
     inkscape:zoom="1.8699813"
     inkscape:cx="280.21671"
     inkscape:cy="127.80877"
     inkscape:window-width="1920"
     inkscape:window-height="1051"
     inkscape:window-x="0"
     inkscape:window-y="0"
     inkscape:window-maximized="1"
     inkscape:current-layer="svg1546" />
  <defs
     id="defs1543">
    <clipPath
       clipPathUnits="userSpaceOnUse"
       id="clipPath4903">
      <g
         id="g4909"
         style="stroke-width:0.999999">
        <g
           id="g4907"
           style="stroke-width:0.999999">
          <path
             d="M -94.245547,-33.793548 H 202.79334 V 386.36478 H -94.245547 Z"
             id="path4905"
             style="stroke-width:0.999999" />
        </g>
      </g>
    </clipPath>
    <clipPath
       clipPathUnits="userSpaceOnUse"
       id="clipPath4911">
      <g
         id="g4917"
         style="stroke-width:0.999999">
        <g
           id="g4915"
           style="stroke-width:0.999999">
          <path
             d="M -94.245547,-33.793548 H 202.79334 V 386.36478 H -94.245547 Z"
             id="path4913"
             style="stroke-width:0.999999" />
        </g>
      </g>
    </clipPath>
    <clipPath
       clipPathUnits="userSpaceOnUse"
       id="clipPath4919">
      <g
         id="g4925"
         style="stroke-width:0.999999">
        <g
           id="g4923"
           style="stroke-width:0.999999">
          <path
             d="M -94.245547,-33.793548 H 202.79334 V 386.36478 H -94.245547 Z"
             id="path4921"
             style="stroke-width:0.999999" />
        </g>
      </g>
    </clipPath>
    <clipPath
       clipPathUnits="userSpaceOnUse"
       id="clipPath4927">
      <g
         id="g4933"
         style="stroke-width:0.999999">
        <g
           id="g4931"
           style="stroke-width:0.999999">
          <path
             d="M -94.245547,-33.793548 H 202.79334 V 386.36478 H -94.245547 Z"
             id="path4929"
             style="stroke-width:0.999999" />
        </g>
      </g>
    </clipPath>
    <clipPath
       clipPathUnits="userSpaceOnUse"
       id="clipPath4935">
      <g
         id="g4941"
         style="stroke-width:0.999999">
        <g
           id="g4939"
           style="stroke-width:0.999999">
          <path
             d="M -94.245547,-33.793548 H 202.79334 V 386.36478 H -94.245547 Z"
             id="path4937"
             style="stroke-width:0.999999" />
        </g>
      </g>
    </clipPath>
    <clipPath
       clipPathUnits="userSpaceOnUse"
       id="clipPath4943">
      <g
         id="g4949"
         style="stroke-width:0.999999">
        <g
           id="g4947"
           style="stroke-width:0.999999">
          <path
             d="M -94.245547,-33.793548 H 202.79334 V 386.36478 H -94.245547 Z"
             id="path4945"
             style="stroke-width:0.999999" />
        </g>
      </g>
    </clipPath>
    <clipPath
       clipPathUnits="userSpaceOnUse"
       id="clipPath4951">
      <g
         id="g4957"
         style="stroke-width:0.999999">
        <g
           id="g4955"
           style="stroke-width:0.999999">
          <path
             d="M -94.245547,-33.793548 H 202.79334 V 386.36478 H -94.245547 Z"
             id="path4953"
             style="stroke-width:0.999999" />
        </g>
      </g>
    </clipPath>
    <clipPath
       clipPathUnits="userSpaceOnUse"
       id="clipPath4959">
      <g
         id="g4965"
         style="stroke-width:0.999999">
        <g
           id="g4963"
           style="stroke-width:0.999999">
          <path
             d="M -94.245547,-33.793548 H 202.79334 V 386.36478 H -94.245547 Z"
             id="path4961"
             style="stroke-width:0.999999" />
        </g>
      </g>
    </clipPath>
    <clipPath
       clipPathUnits="userSpaceOnUse"
       id="clipPath4967">
      <g
         id="g4973"
         style="stroke-width:0.999999">
        <g
           id="g4971"
           style="stroke-width:0.999999">
          <path
             d="M -94.245547,-33.793548 H 202.79334 V 386.36478 H -94.245547 Z"
             id="path4969"
             style="stroke-width:0.999999" />
        </g>
      </g>
    </clipPath>
  </defs>
  <g
     id="g10628">
    <path
       d="M 6.034356,28.51865 C -1.248741,22.89078 -2.735699,10.55309 6.023416,3.46049 l 0.01094,25.05816 M 8.254387,14.72715 8.540842,1.84653 C 18.092301,-2.96959 28.00712,2.23388 31.091103,10.54744 34.42062,20.47637 28.000064,31.45094 16.766562,31.93071 38.605622,16.8671 15.544187,3.11865 8.254387,14.72715 m 0.367947,2.89102 c 2.55905,-5.18831 8.939389,-4.38609 10.147653,-0.38841 C 20.32997,21.58445 13.689281,31.38073 8.564479,34.78328 7.893142,33.44766 7.933359,20.8348 8.622329,17.61817"
       style="fill:#ffffff;fill-opacity:1;fill-rule:nonzero;stroke:none;stroke-width:0.352778"
       id="path404" />
    <g
       id="g418"
       style="fill:#ffffff;fill-opacity:1"
       transform="matrix(0.35277777,0,0,0.35277777,-94.245547,-33.793548)" />
    <g
       id="g10609">
      <path
         d="m 43.806272,25.28967 h -1.208616 v -2.4638 h -2.265539 v 2.4638 h -1.206853 v -5.71323 h 1.206853 v 2.24084 h 2.265539 v -2.24084 h 1.208616 z"
         style="fill:#ffffff;fill-opacity:1;fill-rule:nonzero;stroke:none;stroke-width:0.352778"
         id="path406" />
      <path
         d="M 52.122655,25.28967 51.70673,23.92971 h -2.079625 l -0.416277,1.35996 h -1.304925 l 2.017536,-5.73652 h 1.479902 l 2.024592,5.73652 z m -0.704144,-2.3756 -0.414867,-1.32856 c -0.02752,-0.0907 -0.06174,-0.20532 -0.104422,-0.34431 -0.04269,-0.13935 -0.08573,-0.27976 -0.128411,-0.4244 -0.04269,-0.14322 -0.07691,-0.26881 -0.103364,-0.37641 -0.02752,0.1076 -0.06456,0.2413 -0.112889,0.40111 -0.04269,0.15451 -0.08537,0.30303 -0.128058,0.44803 -0.0374,0.13758 -0.06632,0.23706 -0.08678,0.29598 l -0.409222,1.32856 z"
         style="fill:#ffffff;fill-opacity:1;fill-rule:nonzero;stroke:none;stroke-width:0.352778"
         id="path408" />
      <path
         d="m 59.530988,22.08186 h 2.264128 v 2.95981 c -0.297391,0.10195 -0.610305,0.18203 -0.935566,0.23989 -0.325262,0.0593 -0.690387,0.0882 -1.095375,0.0882 -0.854428,0 -1.510595,-0.25082 -1.969559,-0.75247 -0.458611,-0.50165 -0.687564,-1.2319 -0.687564,-2.19252 0,-0.59654 0.1143,-1.11477 0.343253,-1.55151 0.230011,-0.43815 0.566209,-0.77576 1.008592,-1.01706 0.448028,-0.23989 0.992364,-0.35948 1.633008,-0.35948 0.303389,0 0.602192,0.0314 0.895703,0.0963 0.293511,0.0635 0.559505,0.14887 0.800805,0.25647 l -0.401108,0.96731 c -0.174978,-0.091 -0.376061,-0.16545 -0.599369,-0.2233 -0.22472,-0.0593 -0.458964,-0.0882 -0.704145,-0.0882 -0.352778,0 -0.658636,0.0801 -0.92075,0.23989 -0.256116,0.15981 -0.456141,0.387 -0.599369,0.68051 -0.138995,0.2921 -0.208139,0.63394 -0.208139,1.02411 0,0.37324 0.04974,0.70415 0.151694,0.99201 0.100542,0.28822 0.261762,0.514 0.479425,0.67945 0.219075,0.15981 0.504473,0.2413 0.85725,0.2413 0.169686,0 0.314325,-0.008 0.431448,-0.025 0.117122,-0.0166 0.230011,-0.0342 0.336197,-0.0565 v -1.19203 h -1.080559 z"
         style="fill:#ffffff;fill-opacity:1;fill-rule:nonzero;stroke:none;stroke-width:0.352778"
         id="path410" />
      <path
         d="m 69.825046,25.28967 h -3.28789 v -5.71323 h 3.28789 v 0.99236 h -2.08069 v 1.2566 h 1.93746 v 0.99236 h -1.93746 v 1.47179 h 2.08069 z"
         style="fill:#ffffff;fill-opacity:1;fill-rule:nonzero;stroke:none;stroke-width:0.352778"
         id="path412" />
      <path
         d="m 79.462936,25.28967 h -1.53635 l -2.48885,-4.32011 h -0.0318 c 0.0113,0.27164 0.0208,0.54292 0.0318,0.81597 0.0166,0.27129 0.0289,0.54434 0.0399,0.81562 v 2.68852 h -1.08021 v -5.71323 h 1.52823 l 2.48038,4.28166 h 0.025 c -0.0113,-0.26176 -0.0222,-0.52352 -0.0332,-0.78422 -0.01,-0.26177 -0.018,-0.52635 -0.0236,-0.79234 v -2.7051 h 1.08868 z"
         style="fill:#ffffff;fill-opacity:1;fill-rule:nonzero;stroke:none;stroke-width:0.352778"
         id="path414" />
      <path
         d="m 37.926679,16.020189 v -0.688941 h 0.532955 q 0.285976,0 0.480959,-0.142988 0.194984,-0.142988 0.194984,-0.701941 V 8.2598458 q 0,-0.519956 -0.207983,-0.675943 -0.194983,-0.155987 -0.46796,-0.155987 h -0.532955 v -0.688941 h 3.795679 q 1.858843,0 2.781765,0.571951 0.93592,0.571952 0.93592,1.793849 0,0.8579269 -0.454961,1.2998892 -0.454962,0.441963 -1.1829,0.675943 v 0.06499 q 0.896924,0.220981 1.455877,0.805931 0.571951,0.571952 0.571951,1.520872 0,2.547784 -3.717685,2.547784 z m 3.756682,-5.251555 q 0.909923,0 1.234896,-0.389967 0.337971,-0.3899673 0.337971,-1.2738922 0,-0.883926 -0.363969,-1.221897 -0.35097,-0.35097 -1.234896,-0.35097 h -0.46796 v 3.2367262 z m 0.363969,4.458622 q 0.870927,0 1.234896,-0.402966 0.363969,-0.402965 0.363969,-1.390882 0,-0.961919 -0.337971,-1.41688 -0.337972,-0.454962 -1.234896,-0.454962 h -0.883925 v 3.66569 z"
         style="font-weight:bold;font-size:12.9989px;line-height:1.25;font-family:'Noto Serif';-inkscape-font-specification:'Noto Serif Bold';text-align:justify;opacity:1;fill:#ffffff;stroke:none;stroke-width:0.2;paint-order:markers stroke fill"
         id="path10444" />
      <path
         d="m 46.089994,16.020189 v -0.688941 h 0.155987 q 0.35097,0 0.58495,-0.181985 0.246979,-0.181985 0.454962,-0.766935 l 2.820761,-7.6433532 h 1.780849 l 2.716771,7.6563522 q 0.194983,0.545954 0.428963,0.740937 0.246979,0.194984 0.558953,0.194984 h 0.23398 v 0.688941 h -4.289637 v -0.688941 h 0.506957 q 0.194984,0 0.376968,-0.116991 0.181985,-0.11699 0.181985,-0.389967 0,-0.155986 -0.039,-0.298974 -0.039,-0.155987 -0.07799,-0.259978 l -0.454962,-1.29989 h -3.158733 l -0.376968,1.117905 q -0.052,0.155987 -0.103991,0.376968 -0.05199,0.207983 -0.05199,0.363969 0,0.24698 0.181984,0.376969 0.181985,0.129989 0.402966,0.129989 h 0.545954 v 0.688941 z m 3.054741,-3.847674 h 2.625778 l -0.688941,-2.13182 Q 50.951583,9.5987327 50.782597,9.0527788 50.62661,8.5068248 50.522619,8.0518638 q -0.11699,0.415964 -0.285976,0.948919 -0.168986,0.519956 -0.324972,0.9749179 z"
         style="font-weight:bold;font-size:12.9989px;line-height:1.25;font-family:'Noto Serif';-inkscape-font-specification:'Noto Serif Bold';text-align:justify;opacity:1;fill:#ffffff;stroke:none;stroke-width:0.2;paint-order:markers stroke fill"
         id="path10446" />
      <path
         d="m 60.267038,16.150178 q -1.507873,0 -2.508788,-0.597949 -1.000915,-0.59795 -1.494873,-1.663859 -0.493959,-1.078909 -0.493959,-2.521787 0,-1.4038813 0.506957,-2.4697912 0.506958,-1.078909 1.507873,-1.676858 1.000915,-0.610948 2.469791,-0.610948 1.494874,0 2.222812,0.441962 0.740937,0.428964 0.740937,1.06591 0,0.480959 -0.415965,0.805932 -0.415964,0.324972 -1.208897,0.324972 0,-0.428963 -0.129989,-0.844928 -0.129989,-0.415965 -0.441963,-0.688942 -0.311974,-0.272977 -0.857927,-0.272977 -1.234896,0 -1.728854,1.026913 -0.480959,1.013915 -0.480959,2.8987552 0,1.88484 0.58495,2.820761 0.59795,0.922922 2.040827,0.922922 0.636947,0 1.091908,-0.181984 0.454962,-0.194984 0.766935,-0.48096 0.324973,-0.285975 0.545954,-0.571951 0.220981,0.181984 0.220981,0.558952 0,0.36397 -0.272977,0.766936 -0.272976,0.389967 -0.909923,0.675942 -0.636946,0.272977 -1.754851,0.272977 z"
         style="font-weight:bold;font-size:12.9989px;line-height:1.25;font-family:'Noto Serif';-inkscape-font-specification:'Noto Serif Bold';text-align:justify;opacity:1;fill:#ffffff;stroke:none;stroke-width:0.2;paint-order:markers stroke fill"
         id="path10448" />
      <path
         d="m 64.101706,16.020189 v -0.688941 h 0.545954 q 0.272977,0 0.46796,-0.142988 0.194984,-0.142988 0.194984,-0.701941 V 8.2208488 q 0,-0.519956 -0.207983,-0.649945 -0.194983,-0.142988 -0.454961,-0.142988 h -0.545954 v -0.688941 h 4.484621 v 0.688941 h -0.558953 q -0.272977,0 -0.46796,0.142988 -0.194984,0.142988 -0.194984,0.701941 v 2.5087872 h 3.392713 V 8.2728448 q 0,-0.558953 -0.194983,-0.701941 -0.194984,-0.142988 -0.467961,-0.142988 h -0.558953 v -0.688941 h 4.484621 v 0.688941 h -0.545954 q -0.272977,0 -0.46796,0.142988 -0.194984,0.142988 -0.194984,0.701941 v 6.2784692 q 0,0.519956 0.194984,0.649945 0.207982,0.129989 0.46796,0.129989 h 0.545954 v 0.688941 h -4.484621 v -0.688941 h 0.558953 q 0.272977,0 0.467961,-0.142988 0.194983,-0.142988 0.194983,-0.701941 V 11.574565 H 67.36443 v 2.911754 q 0,0.558953 0.194984,0.701941 0.194983,0.142988 0.46796,0.142988 h 0.558953 v 0.688941 z"
         style="font-weight:bold;font-size:12.9989px;line-height:1.25;font-family:'Noto Serif';-inkscape-font-specification:'Noto Serif Bold';text-align:justify;opacity:1;fill:#ffffff;stroke:none;stroke-width:0.2;paint-order:markers stroke fill"
         id="path10450" />
      <path
         d="m 82.886085,16.150178 q -1.507873,0 -2.508788,-0.597949 -1.000915,-0.59795 -1.494874,-1.663859 -0.493958,-1.078909 -0.493958,-2.521787 0,-1.4038813 0.506957,-2.4697912 0.506957,-1.078909 1.507873,-1.676858 1.000915,-0.610948 2.469791,-0.610948 1.494873,0 2.222812,0.441962 0.740937,0.428964 0.740937,1.06591 0,0.480959 -0.415965,0.805932 -0.415964,0.324972 -1.208897,0.324972 0,-0.428963 -0.129989,-0.844928 -0.129989,-0.415965 -0.441963,-0.688942 -0.311974,-0.272977 -0.857927,-0.272977 -1.234896,0 -1.728854,1.026913 -0.480959,1.013915 -0.480959,2.8987552 0,1.88484 0.58495,2.820761 0.597949,0.922922 2.040827,0.922922 0.636947,0 1.091908,-0.181984 0.454962,-0.194984 0.766935,-0.48096 0.324973,-0.285975 0.545954,-0.571951 0.220981,0.181984 0.220981,0.558952 0,0.36397 -0.272977,0.766936 -0.272977,0.389967 -0.909923,0.675942 -0.636946,0.272977 -1.754851,0.272977 z"
         style="font-weight:bold;font-size:12.9989px;line-height:1.25;font-family:'Noto Serif';-inkscape-font-specification:'Noto Serif Bold';text-align:justify;opacity:1;fill:#ffffff;stroke:none;stroke-width:0.2;paint-order:markers stroke fill"
         id="path10452" />
      <path
         d="m 86.720753,16.020189 v -0.688941 h 0.545954 q 0.272977,0 0.46796,-0.142988 0.194984,-0.142988 0.194984,-0.701941 V 8.2208488 q 0,-0.519956 -0.207983,-0.649945 -0.194983,-0.142988 -0.454961,-0.142988 h -0.545954 v -0.688941 h 4.484621 v 0.688941 h -0.558953 q -0.272977,0 -0.46796,0.142988 -0.194984,0.142988 -0.194984,0.701941 V 10.781632 H 93.37619 V 8.2728448 q 0,-0.558953 -0.194983,-0.701941 -0.194984,-0.142988 -0.467961,-0.142988 h -0.558953 v -0.688941 h 4.484621 v 0.688941 H 96.09296 q -0.272977,0 -0.46796,0.142988 -0.194984,0.142988 -0.194984,0.701941 v 6.2784692 q 0,0.519956 0.194984,0.649945 0.207982,0.129989 0.46796,0.129989 h 0.545954 v 0.688941 h -4.484621 v -0.688941 h 0.558953 q 0.272977,0 0.467961,-0.142988 0.194983,-0.142988 0.194983,-0.701941 v -2.911754 h -3.392713 v 2.911754 q 0,0.558953 0.194984,0.701941 0.194983,0.142988 0.46796,0.142988 h 0.558953 v 0.688941 z"
         style="font-weight:bold;font-size:12.9989px;line-height:1.25;font-family:'Noto Serif';-inkscape-font-specification:'Noto Serif Bold';text-align:justify;opacity:1;fill:#ffffff;stroke:none;stroke-width:0.2;paint-order:markers stroke fill"
         id="path10454" />
      <path
         d="m 101.52325,16.150178 q -1.48187,0 -2.456779,-0.597949 -0.974918,-0.59795 -1.468876,-1.676858 -0.48096,-1.078909 -0.48096,-2.521787 0,-1.4428783 0.48096,-2.5087872 0.493958,-1.06591 1.468876,-1.650861 0.987909,-0.597949 2.469779,-0.597949 1.40388,0 2.3788,0.597949 0.98792,0.584951 1.49487,1.663859 0.50696,1.0659099 0.50696,2.5087882 0,1.442878 -0.51996,2.521787 -0.50695,1.065909 -1.48187,1.663859 -0.97492,0.597949 -2.3918,0.597949 z m 0,-0.844928 q 1.2219,0 1.71586,-1.039912 0.49396,-1.039912 0.49396,-2.898755 0,-1.8588432 -0.49396,-2.8857562 -0.49396,-1.039912 -1.70286,-1.039912 -1.2219,0 -1.728831,1.039912 -0.506968,1.026913 -0.506968,2.8857562 0,1.858843 0.506968,2.898755 0.506931,1.039912 1.715831,1.039912 z"
         style="font-weight:bold;font-size:12.9989px;line-height:1.25;font-family:'Noto Serif';-inkscape-font-specification:'Noto Serif Bold';text-align:justify;opacity:1;fill:#ffffff;stroke:none;stroke-width:0.2;paint-order:markers stroke fill"
         id="path10456" />
      <path
         d="m 106.39453,16.020189 v -0.688941 h 0.54595 q 0.25998,0 0.45496,-0.129989 0.20798,-0.129989 0.20798,-0.649945 V 8.2208488 q 0,-0.519956 -0.20798,-0.649945 -0.19498,-0.142988 -0.45496,-0.142988 h -0.54595 v -0.688941 h 4.18564 q 1.84585,0 2.70377,0.623947 0.85793,0.610948 0.85793,1.780849 0,0.6889419 -0.25998,1.1699012 -0.25998,0.480959 -0.66294,0.792933 -0.40297,0.311974 -0.84493,0.493958 l 1.54687,2.664775 q 0.33797,0.558952 0.63695,0.81893 0.29897,0.24698 0.66294,0.24698 h 0.052 v 0.688941 h -0.42896 q -0.77993,0 -1.29989,-0.09099 -0.51996,-0.09099 -0.87093,-0.337971 -0.33797,-0.259978 -0.61094,-0.740938 l -1.54687,-2.859758 h -0.85793 v 2.560784 q 0,0.519956 0.19498,0.649945 0.20799,0.129989 0.46796,0.129989 h 0.55896 v 0.688941 z m 3.99066,-4.783595 q 0.89692,0 1.23489,-0.480959 0.33797,-0.48096 0.33797,-1.4298792 0,-0.987917 -0.36396,-1.403881 -0.36397,-0.415965 -1.2349,-0.415965 h -0.70194 v 3.7306842 z"
         style="font-weight:bold;font-size:12.9989px;line-height:1.25;font-family:'Noto Serif';-inkscape-font-specification:'Noto Serif Bold';text-align:justify;opacity:1;fill:#ffffff;stroke:none;stroke-width:0.2;paint-order:markers stroke fill"
         id="path10458" />
      <path
         id="path10521"
         style="opacity:1;fill:#ffffff;stroke-width:0.2;paint-order:markers stroke fill"
         d="m 76.923936,11.379522 a 1.0250634,1.0250634 0 0 1 -1.025064,1.025064 1.0250634,1.0250634 0 0 1 -1.025063,-1.025064 1.0250634,1.0250634 0 0 1 1.025063,-1.025063 1.0250634,1.0250634 0 0 1 1.025064,1.025063 z" />
    </g>
  </g>
</svg>
