<?xml version="1.0" encoding="UTF-8" standalone="no"?>
<!-- Created with Inkscape (http://www.inkscape.org/) -->

<svg
   width="115.27834mm"
   height="34.783279mm"
   viewBox="0 0 115.27834 34.783279"
   version="1.1"
   id="svg1546"
   inkscape:version="1.2.2 (b0a8486541, 2022-12-01)"
   sodipodi:docname="logo.svg"
   xmlns:inkscape="http://www.inkscape.org/namespaces/inkscape"
   xmlns:sodipodi="http://sodipodi.sourceforge.net/DTD/sodipodi-0.dtd"
   xmlns="http://www.w3.org/2000/svg"
   xmlns:svg="http://www.w3.org/2000/svg">
  <sodipodi:namedview
     id="namedview1548"
     pagecolor="#ffffff"
     bordercolor="#666666"
     borderopacity="1.0"
     inkscape:showpageshadow="2"
     inkscape:pageopacity="0.0"
     inkscape:pagecheckerboard="0"
     inkscape:deskcolor="#d1d1d1"
     inkscape:document-units="mm"
     showgrid="false"
     inkscape:zoom="2.3806804"
     inkscape:cx="89.47022"
     inkscape:cy="115.51319"
     inkscape:window-width="1920"
     inkscape:window-height="1051"
     inkscape:window-x="0"
     inkscape:window-y="0"
     inkscape:window-maximized="1"
     inkscape:current-layer="layer1" />
  <defs
     id="defs1543">
    <clipPath
       clipPathUnits="userSpaceOnUse"
       id="clipPath7169">
      <g
         id="g7175"
         style="stroke-width:0.999999">
        <g
           id="g7173"
           style="stroke-width:0.999999">
          <path
             d="M -56.880683,97.464662 H 240.1582 V 517.62299 H -56.880683 Z"
             id="path7171"
             style="stroke-width:0.999999" />
        </g>
      </g>
    </clipPath>
    <clipPath
       clipPathUnits="userSpaceOnUse"
       id="clipPath7177">
      <g
         id="g7183"
         style="stroke-width:0.999999">
        <g
           id="g7181"
           style="stroke-width:0.999999">
          <path
             d="M -56.880683,97.464662 H 240.1582 V 517.62299 H -56.880683 Z"
             id="path7179"
             style="stroke-width:0.999999" />
        </g>
      </g>
    </clipPath>
    <clipPath
       clipPathUnits="userSpaceOnUse"
       id="clipPath7185">
      <g
         id="g7191"
         style="stroke-width:0.999999">
        <g
           id="g7189"
           style="stroke-width:0.999999">
          <path
             d="M -56.880683,97.464662 H 240.1582 V 517.62299 H -56.880683 Z"
             id="path7187"
             style="stroke-width:0.999999" />
        </g>
      </g>
    </clipPath>
    <clipPath
       clipPathUnits="userSpaceOnUse"
       id="clipPath7193">
      <g
         id="g7199"
         style="stroke-width:0.999999">
        <g
           id="g7197"
           style="stroke-width:0.999999">
          <path
             d="M -56.880683,97.464662 H 240.1582 V 517.62299 H -56.880683 Z"
             id="path7195"
             style="stroke-width:0.999999" />
        </g>
      </g>
    </clipPath>
    <clipPath
       clipPathUnits="userSpaceOnUse"
       id="clipPath7201">
      <g
         id="g7207"
         style="stroke-width:0.999999">
        <g
           id="g7205"
           style="stroke-width:0.999999">
          <path
             d="M -56.880683,97.464662 H 240.1582 V 517.62299 H -56.880683 Z"
             id="path7203"
             style="stroke-width:0.999999" />
        </g>
      </g>
    </clipPath>
    <clipPath
       clipPathUnits="userSpaceOnUse"
       id="clipPath7209">
      <g
         id="g7215"
         style="stroke-width:0.999999">
        <g
           id="g7213"
           style="stroke-width:0.999999">
          <path
             d="M -56.880683,97.464662 H 240.1582 V 517.62299 H -56.880683 Z"
             id="path7211"
             style="stroke-width:0.999999" />
        </g>
      </g>
    </clipPath>
    <clipPath
       clipPathUnits="userSpaceOnUse"
       id="clipPath7217">
      <g
         id="g7223"
         style="stroke-width:0.999999">
        <g
           id="g7221"
           style="stroke-width:0.999999">
          <path
             d="M -56.880683,97.464662 H 240.1582 V 517.62299 H -56.880683 Z"
             id="path7219"
             style="stroke-width:0.999999" />
        </g>
      </g>
    </clipPath>
    <clipPath
       clipPathUnits="userSpaceOnUse"
       id="clipPath7225">
      <g
         id="g7231"
         style="stroke-width:0.999999">
        <g
           id="g7229"
           style="stroke-width:0.999999">
          <path
             d="M -56.880683,97.464662 H 240.1582 V 517.62299 H -56.880683 Z"
             id="path7227"
             style="stroke-width:0.999999" />
        </g>
      </g>
    </clipPath>
    <clipPath
       clipPathUnits="userSpaceOnUse"
       id="clipPath7233">
      <g
         id="g7239"
         style="stroke-width:0.999999">
        <g
           id="g7237"
           style="stroke-width:0.999999">
          <path
             d="M -56.880683,97.464662 H 240.1582 V 517.62299 H -56.880683 Z"
             id="path7235"
             style="stroke-width:0.999999" />
        </g>
      </g>
    </clipPath>
  </defs>
  <g
     inkscape:label="Layer 1"
     inkscape:groupmode="layer"
     id="layer1"
     transform="translate(-37.364864,-131.25821)">
    <g
       id="g12274">
      <path
         d="M 43.39922,159.77686 C 36.116123,154.14899 34.629165,141.8113 43.38828,134.7187 l 0.01094,25.05816 m 2.220031,-13.7915 0.286455,-12.88062 c 9.551459,-4.81612 19.466278,0.38735 22.550261,8.70091 3.329517,9.92893 -3.091039,20.9035 -14.324541,21.38327 21.83906,-15.06361 -1.222375,-28.81206 -8.512175,-17.20356 m 0.367947,2.89102 c 2.55905,-5.18831 8.939389,-4.38609 10.147653,-0.38841 1.559983,4.35469 -5.080706,14.15097 -10.205508,17.55352 -0.671337,-1.33562 -0.63112,-13.94848 0.05785,-17.16511"
         style="fill:#304ba6;fill-opacity:1;fill-rule:nonzero;stroke:none;stroke-width:0.352778"
         id="path404" />
      <g
         id="g12256">
        <path
           d="M 81.171136,156.54788 H 79.96252 v -2.4638 h -2.265539 v 2.4638 h -1.206853 v -5.71323 h 1.206853 v 2.24084 h 2.265539 v -2.24084 h 1.208616 z"
           style="fill:#304ba6;fill-opacity:1;fill-rule:nonzero;stroke:none;stroke-width:0.352778"
           id="path406" />
        <path
           d="m 89.487519,156.54788 -0.415925,-1.35996 h -2.079625 l -0.416277,1.35996 h -1.304925 l 2.017536,-5.73652 h 1.479902 l 2.024592,5.73652 z m -0.704144,-2.3756 -0.414867,-1.32856 c -0.02752,-0.0907 -0.06174,-0.20532 -0.104422,-0.34431 -0.04269,-0.13935 -0.08573,-0.27976 -0.128411,-0.4244 -0.04269,-0.14322 -0.07691,-0.26881 -0.103364,-0.37641 -0.02752,0.1076 -0.06456,0.2413 -0.112889,0.40111 -0.04269,0.15451 -0.08537,0.30303 -0.128058,0.44803 -0.0374,0.13758 -0.06632,0.23706 -0.08678,0.29598 l -0.409222,1.32856 z"
           style="fill:#304ba6;fill-opacity:1;fill-rule:nonzero;stroke:none;stroke-width:0.352778"
           id="path408" />
        <path
           d="m 96.895852,153.34007 h 2.264128 v 2.95981 c -0.297391,0.10195 -0.610305,0.18203 -0.935566,0.23989 -0.325262,0.0593 -0.690387,0.0882 -1.095375,0.0882 -0.854428,0 -1.510595,-0.25082 -1.969559,-0.75247 -0.458611,-0.50165 -0.687564,-1.2319 -0.687564,-2.19252 0,-0.59654 0.1143,-1.11477 0.343253,-1.55151 0.230011,-0.43815 0.566209,-0.77576 1.008592,-1.01706 0.448028,-0.23989 0.992364,-0.35948 1.633008,-0.35948 0.303389,0 0.602192,0.0314 0.895703,0.0963 0.293511,0.0635 0.559505,0.14887 0.800805,0.25647 l -0.401108,0.96731 c -0.174978,-0.091 -0.376061,-0.16545 -0.599369,-0.2233 -0.22472,-0.0593 -0.458964,-0.0882 -0.704145,-0.0882 -0.352778,0 -0.658636,0.0801 -0.92075,0.23989 -0.256116,0.15981 -0.456141,0.387 -0.599369,0.68051 -0.138995,0.2921 -0.208139,0.63394 -0.208139,1.02411 0,0.37324 0.04974,0.70415 0.151694,0.99201 0.100542,0.28822 0.261762,0.514 0.479425,0.67945 0.219075,0.15981 0.504473,0.2413 0.85725,0.2413 0.169686,0 0.314325,-0.008 0.431448,-0.025 0.117122,-0.0166 0.230011,-0.0342 0.336197,-0.0565 v -1.19203 h -1.080559 z"
           style="fill:#304ba6;fill-opacity:1;fill-rule:nonzero;stroke:none;stroke-width:0.352778"
           id="path410" />
        <path
           d="m 107.18991,156.54788 h -3.28789 v -5.71323 h 3.28789 v 0.99236 h -2.08069 v 1.2566 h 1.93746 v 0.99236 h -1.93746 v 1.47179 h 2.08069 z"
           style="fill:#304ba6;fill-opacity:1;fill-rule:nonzero;stroke:none;stroke-width:0.352778"
           id="path412" />
        <path
           d="m 116.8278,156.54788 h -1.53635 l -2.48885,-4.32011 h -0.0318 c 0.0113,0.27164 0.0208,0.54292 0.0318,0.81597 0.0166,0.27129 0.0289,0.54434 0.0399,0.81562 v 2.68852 h -1.08021 v -5.71323 h 1.52823 l 2.48038,4.28166 h 0.025 c -0.0113,-0.26176 -0.0222,-0.52352 -0.0332,-0.78422 -0.01,-0.26177 -0.018,-0.52635 -0.0236,-0.79234 v -2.7051 h 1.08868 z"
           style="fill:#304ba6;fill-opacity:1;fill-rule:nonzero;stroke:none;stroke-width:0.352778"
           id="path414" />
        <path
           d="m 75.279599,147.27741 v -0.68894 h 0.532955 q 0.285976,0 0.480959,-0.14299 0.194984,-0.14299 0.194984,-0.70194 v -6.22647 q 0,-0.51996 -0.207983,-0.67595 -0.194983,-0.15598 -0.46796,-0.15598 h -0.532955 v -0.68895 h 3.795679 q 1.858843,0 2.781765,0.57196 0.93592,0.57195 0.93592,1.79384 0,0.85793 -0.454961,1.29989 -0.454962,0.44197 -1.1829,0.67595 v 0.065 q 0.896924,0.22098 1.455877,0.80593 0.571951,0.57195 0.571951,1.52087 0,2.54778 -3.717685,2.54778 z m 3.756682,-5.25156 q 0.909923,0 1.234896,-0.38996 0.337971,-0.38997 0.337971,-1.2739 0,-0.88392 -0.363969,-1.22189 -0.35097,-0.35097 -1.234896,-0.35097 h -0.46796 v 3.23672 z m 0.363969,4.45863 q 0.870927,0 1.234896,-0.40297 0.363969,-0.40297 0.363969,-1.39088 0,-0.96192 -0.337971,-1.41688 -0.337972,-0.45496 -1.234896,-0.45496 h -0.883925 v 3.66569 z"
           style="font-weight:bold;font-size:12.9989px;line-height:1.25;font-family:'Noto Serif';-inkscape-font-specification:'Noto Serif Bold';text-align:justify;fill:#292929;stroke:none;stroke-width:0.2;paint-order:markers stroke fill;fill-opacity:1"
           id="path10444" />
        <path
           d="m 83.442914,147.27741 v -0.68894 h 0.155987 q 0.35097,0 0.58495,-0.18199 0.246979,-0.18198 0.454962,-0.76693 l 2.820761,-7.64336 h 1.780849 l 2.716771,7.65636 q 0.194983,0.54595 0.428963,0.74093 0.246979,0.19499 0.558953,0.19499 h 0.23398 v 0.68894 h -4.289637 v -0.68894 h 0.506957 q 0.194984,0 0.376968,-0.11699 0.181985,-0.11699 0.181985,-0.38997 0,-0.15599 -0.039,-0.29897 -0.039,-0.15599 -0.07799,-0.25998 l -0.454962,-1.29989 h -3.158733 l -0.376968,1.1179 q -0.052,0.15599 -0.103991,0.37697 -0.05199,0.20798 -0.05199,0.36397 0,0.24698 0.181984,0.37697 0.181985,0.12999 0.402966,0.12999 h 0.545954 v 0.68894 z m 3.054741,-3.84768 h 2.625778 l -0.688941,-2.13182 q -0.129989,-0.44196 -0.298975,-0.98791 -0.155987,-0.54596 -0.259978,-1.00092 -0.11699,0.41597 -0.285976,0.94892 -0.168986,0.51996 -0.324972,0.97492 z"
           style="font-weight:bold;font-size:12.9989px;line-height:1.25;font-family:'Noto Serif';-inkscape-font-specification:'Noto Serif Bold';text-align:justify;fill:#292929;stroke:none;stroke-width:0.2;paint-order:markers stroke fill;fill-opacity:1"
           id="path10446" />
        <path
           d="m 97.619961,147.4074 q -1.50788,0 -2.508791,-0.59795 -1.000915,-0.59795 -1.494873,-1.66386 -0.493959,-1.07891 -0.493959,-2.52179 0,-1.40388 0.506957,-2.46979 0.506958,-1.07891 1.507873,-1.67686 1.000913,-0.61094 2.469793,-0.61094 1.49487,0 2.22281,0.44196 0.740939,0.42896 0.740939,1.06591 0,0.48096 -0.41597,0.80593 -0.415959,0.32497 -1.208889,0.32497 0,-0.42896 -0.12999,-0.84493 -0.12999,-0.41596 -0.44197,-0.68894 -0.31197,-0.27298 -0.85792,-0.27298 -1.2349,0 -1.72886,1.02692 -0.480957,1.01391 -0.480957,2.89875 0,1.88484 0.584947,2.82076 0.59795,0.92293 2.04083,0.92293 0.63695,0 1.09191,-0.18199 0.45496,-0.19498 0.76693,-0.48096 0.324979,-0.28597 0.545959,-0.57195 0.22098,0.18198 0.22098,0.55895 0,0.36397 -0.27298,0.76694 -0.27297,0.38997 -0.909919,0.67594 -0.63695,0.27298 -1.75485,0.27298 z"
           style="font-weight:bold;font-size:12.9989px;line-height:1.25;font-family:'Noto Serif';-inkscape-font-specification:'Noto Serif Bold';text-align:justify;fill:#292929;stroke:none;stroke-width:0.2;paint-order:markers stroke fill;fill-opacity:1"
           id="path10448" />
        <path
           d="m 101.45462,147.27741 v -0.68894 h 0.54596 q 0.27298,0 0.46796,-0.14299 0.19498,-0.14299 0.19498,-0.70194 v -6.26547 q 0,-0.51996 -0.20798,-0.64995 -0.19498,-0.14298 -0.45496,-0.14298 h -0.54595 v -0.68895 h 4.48462 v 0.68895 h -0.55896 q -0.27297,0 -0.46796,0.14298 -0.19498,0.14299 -0.19498,0.70194 v 2.50879 h 3.39271 v -2.50879 q 0,-0.55895 -0.19498,-0.70194 -0.19498,-0.14298 -0.46796,-0.14298 h -0.55895 v -0.68895 h 4.48462 v 0.68895 h -0.54596 q -0.27297,0 -0.46796,0.14298 -0.19498,0.14299 -0.19498,0.70194 v 6.27847 q 0,0.51996 0.19498,0.64995 0.20798,0.12999 0.46796,0.12999 h 0.54596 v 0.68894 h -4.48462 v -0.68894 h 0.55895 q 0.27298,0 0.46796,-0.14299 0.19498,-0.14299 0.19498,-0.70194 v -2.91176 h -3.39271 v 2.91176 q 0,0.55895 0.19498,0.70194 0.19499,0.14299 0.46796,0.14299 h 0.55896 v 0.68894 z"
           style="font-weight:bold;font-size:12.9989px;line-height:1.25;font-family:'Noto Serif';-inkscape-font-specification:'Noto Serif Bold';text-align:justify;fill:#292929;stroke:none;stroke-width:0.2;paint-order:markers stroke fill;fill-opacity:1"
           id="path10450" />
        <path
           d="m 120.239,147.4074 q -1.50787,0 -2.50878,-0.59795 -1.00092,-0.59795 -1.49488,-1.66386 -0.49396,-1.07891 -0.49396,-2.52179 0,-1.40388 0.50696,-2.46979 0.50696,-1.07891 1.50787,-1.67686 1.00092,-0.61094 2.4698,-0.61094 1.49487,0 2.22281,0.44196 0.74093,0.42896 0.74093,1.06591 0,0.48096 -0.41596,0.80593 -0.41596,0.32497 -1.2089,0.32497 0,-0.42896 -0.12999,-0.84493 -0.12999,-0.41596 -0.44196,-0.68894 -0.31197,-0.27298 -0.85793,-0.27298 -1.23489,0 -1.72885,1.02692 -0.48096,1.01391 -0.48096,2.89875 0,1.88484 0.58495,2.82076 0.59795,0.92293 2.04083,0.92293 0.63694,0 1.09191,-0.18199 0.45496,-0.19498 0.76693,-0.48096 0.32497,-0.28597 0.54595,-0.57195 0.22099,0.18198 0.22099,0.55895 0,0.36397 -0.27298,0.76694 -0.27298,0.38997 -0.90992,0.67594 -0.63695,0.27298 -1.75486,0.27298 z"
           style="font-weight:bold;font-size:12.9989px;line-height:1.25;font-family:'Noto Serif';-inkscape-font-specification:'Noto Serif Bold';text-align:justify;fill:#292929;stroke:none;stroke-width:0.2;paint-order:markers stroke fill;fill-opacity:1"
           id="path10452" />
        <path
           d="m 124.07367,147.27741 v -0.68894 h 0.54596 q 0.27297,0 0.46796,-0.14299 0.19498,-0.14299 0.19498,-0.70194 v -6.26547 q 0,-0.51996 -0.20798,-0.64995 -0.19499,-0.14298 -0.45496,-0.14298 h -0.54596 v -0.68895 h 4.48462 v 0.68895 h -0.55895 q -0.27298,0 -0.46796,0.14298 -0.19498,0.14299 -0.19498,0.70194 v 2.50879 h 3.39271 v -2.50879 q 0,-0.55895 -0.19498,-0.70194 -0.19499,-0.14298 -0.46797,-0.14298 h -0.55895 v -0.68895 h 4.48462 v 0.68895 h -0.54595 q -0.27298,0 -0.46796,0.14298 -0.19499,0.14299 -0.19499,0.70194 v 6.27847 q 0,0.51996 0.19499,0.64995 0.20798,0.12999 0.46796,0.12999 h 0.54595 v 0.68894 h -4.48462 v -0.68894 h 0.55895 q 0.27298,0 0.46797,-0.14299 0.19498,-0.14299 0.19498,-0.70194 v -2.91176 h -3.39271 v 2.91176 q 0,0.55895 0.19498,0.70194 0.19498,0.14299 0.46796,0.14299 h 0.55895 v 0.68894 z"
           style="font-weight:bold;font-size:12.9989px;line-height:1.25;font-family:'Noto Serif';-inkscape-font-specification:'Noto Serif Bold';text-align:justify;fill:#292929;stroke:none;stroke-width:0.2;paint-order:markers stroke fill;fill-opacity:1"
           id="path10454" />
        <path
           d="m 138.87617,147.4074 q -1.48187,0 -2.45678,-0.59795 -0.97492,-0.59795 -1.46888,-1.67686 -0.48096,-1.07891 -0.48096,-2.52179 0,-1.44287 0.48096,-2.50878 0.49396,-1.06591 1.46888,-1.65086 0.98791,-0.59795 2.46978,-0.59795 1.40388,0 2.3788,0.59795 0.98792,0.58495 1.49487,1.66385 0.50696,1.06591 0.50696,2.50879 0,1.44288 -0.51996,2.52179 -0.50695,1.06591 -1.48187,1.66386 -0.97492,0.59795 -2.3918,0.59795 z m 0,-0.84493 q 1.2219,0 1.71586,-1.03991 0.49396,-1.03991 0.49396,-2.89876 0,-1.85884 -0.49396,-2.88575 -0.49396,-1.03992 -1.70286,-1.03992 -1.2219,0 -1.72883,1.03992 -0.50697,1.02691 -0.50697,2.88575 0,1.85885 0.50697,2.89876 0.50693,1.03991 1.71583,1.03991 z"
           style="font-weight:bold;font-size:12.9989px;line-height:1.25;font-family:'Noto Serif';-inkscape-font-specification:'Noto Serif Bold';text-align:justify;fill:#292929;stroke:none;stroke-width:0.2;paint-order:markers stroke fill;fill-opacity:1"
           id="path10456" />
        <path
           d="m 143.74745,147.27741 v -0.68894 h 0.54595 q 0.25998,0 0.45496,-0.12999 0.20798,-0.12999 0.20798,-0.64995 v -6.33046 q 0,-0.51996 -0.20798,-0.64995 -0.19498,-0.14298 -0.45496,-0.14298 h -0.54595 v -0.68895 h 4.18564 q 1.84585,0 2.70377,0.62395 0.85793,0.61095 0.85793,1.78085 0,0.68894 -0.25998,1.1699 -0.25998,0.48096 -0.66294,0.79293 -0.40297,0.31198 -0.84493,0.49396 l 1.54687,2.66478 q 0.33797,0.55895 0.63695,0.81893 0.29897,0.24698 0.66294,0.24698 h 0.052 v 0.68894 h -0.42896 q -0.77993,0 -1.29989,-0.091 -0.51996,-0.091 -0.87093,-0.33797 -0.33797,-0.25998 -0.61094,-0.74094 l -1.54687,-2.85976 h -0.85793 v 2.56079 q 0,0.51995 0.19498,0.64994 0.20799,0.12999 0.46796,0.12999 h 0.55896 v 0.68894 z m 3.99066,-4.7836 q 0.89692,0 1.23489,-0.48096 0.33797,-0.48096 0.33797,-1.42987 0,-0.98792 -0.36396,-1.40389 -0.36397,-0.41596 -1.2349,-0.41596 h -0.70194 v 3.73068 z"
           style="font-weight:bold;font-size:12.9989px;line-height:1.25;font-family:'Noto Serif';-inkscape-font-specification:'Noto Serif Bold';text-align:justify;fill:#292929;stroke:none;stroke-width:0.2;paint-order:markers stroke fill;fill-opacity:1"
           id="path10458" />
        <path
           id="path10521"
           style="fill:#292929;stroke-width:0.2;paint-order:markers stroke fill;fill-opacity:1"
           d="m 114.27685,142.63674 a 1.0250634,1.0250634 0 0 1 -1.02506,1.02507 1.0250634,1.0250634 0 0 1 -1.02506,-1.02507 1.0250634,1.0250634 0 0 1 1.02506,-1.02506 1.0250634,1.0250634 0 0 1 1.02506,1.02506 z" />
      </g>
    </g>
  </g>
</svg>
